<svg width="1600" height="900" viewBox="0 0 1600 900" fill="none" xmlns="http://www.w3.org/2000/svg">
<rect width="1600" height="900" fill="url(#paint0_linear_60_125)"/>
<g clip-path="url(#clip0_60_125)">
<path d="M928.78 116H693.22C633.176 116 584.5 164.676 584.5 224.72V460.28C584.5 520.324 633.176 569 693.22 569H928.78C988.824 569 1037.5 520.324 1037.5 460.28V224.72C1037.5 164.676 988.824 116 928.78 116Z" fill="url(#paint1_linear_60_125)"/>
<mask id="mask0_60_125" style="mask-type:luminance" maskUnits="userSpaceOnUse" x="584" y="116" width="454" height="453">
<path d="M928.78 116H693.22C633.176 116 584.5 164.676 584.5 224.72V460.28C584.5 520.324 633.176 569 693.22 569H928.78C988.824 569 1037.5 520.324 1037.5 460.28V224.72C1037.5 164.676 988.824 116 928.78 116Z" fill="white"/>
</mask>
<g mask="url(#mask0_60_125)">
<path d="M731.725 387.8C856.818 387.8 958.225 309.209 958.225 212.263C958.225 115.316 856.818 36.725 731.725 36.725C606.633 36.725 505.225 115.316 505.225 212.263C505.225 309.209 606.633 387.8 731.725 387.8Z" fill="white" fill-opacity="0.07"/>
</g>
<mask id="mask1_60_125" style="mask-type:luminance" maskUnits="userSpaceOnUse" x="584" y="116" width="454" height="453">
<path d="M928.78 116H693.22C633.176 116 584.5 164.676 584.5 224.72V460.28C584.5 520.324 633.176 569 693.22 569H928.78C988.824 569 1037.5 520.324 1037.5 460.28V224.72C1037.5 164.676 988.824 116 928.78 116Z" fill="white"/>
</mask>
<g mask="url(#mask1_60_125)">
<path d="M935.575 636.95C1035.65 636.95 1116.77 571.035 1116.77 489.725C1116.77 408.415 1035.65 342.5 935.575 342.5C835.501 342.5 754.375 408.415 754.375 489.725C754.375 571.035 835.501 636.95 935.575 636.95Z" fill="black" fill-opacity="0.12"/>
</g>
<g filter="url(#filter0_f_60_125)">
<path d="M811.5 204C834.908 273.174 881.075 319.507 950 343C881.075 366.493 834.908 412.826 811.5 482C788.092 412.826 741.925 366.493 673 343C741.925 319.507 788.092 273.174 811.5 204Z" fill="url(#paint2_radial_60_125)"/>
</g>
<path opacity="0.14" d="M903.373 251.26C881.116 309.682 883.898 373.668 911.719 443.218C842.168 415.398 778.182 412.616 719.76 434.872C742.016 376.45 739.234 312.464 711.414 242.914C780.964 270.734 844.95 273.516 903.373 251.26Z" fill="white"/>
</g>
<path d="M522.585 693.722C515.817 693.722 509.75 692.18 504.384 689.097C499.038 686.034 494.813 681.569 491.71 675.702C488.626 669.855 487.084 662.797 487.084 654.528C487.084 646.199 488.636 639.101 491.74 633.234C494.863 627.367 499.108 622.892 504.474 619.809C509.84 616.725 515.877 615.184 522.585 615.184C526.929 615.184 530.974 615.794 534.718 617.016C538.482 618.237 541.816 620.009 544.719 622.332C547.623 624.654 549.995 627.507 551.838 630.891C553.7 634.255 554.921 638.069 555.502 642.334H539.644C539.303 640.252 538.643 638.4 537.662 636.778C536.68 635.156 535.469 633.775 534.027 632.633C532.566 631.472 530.894 630.591 529.012 629.99C527.13 629.41 525.097 629.119 522.915 629.119C518.93 629.119 515.436 630.11 512.433 632.093C509.41 634.075 507.077 636.958 505.435 640.742C503.793 644.507 502.972 649.102 502.972 654.528C502.972 660.034 503.813 664.669 505.495 668.434C507.177 672.198 509.51 675.031 512.493 676.933C515.456 678.855 518.91 679.817 522.855 679.817C525.037 679.817 527.06 679.516 528.922 678.916C530.784 678.315 532.466 677.444 533.967 676.303C535.449 675.161 536.68 673.77 537.662 672.128C538.643 670.486 539.313 668.634 539.674 666.572H555.532C555.131 670.096 554.08 673.489 552.378 676.753C550.696 679.997 548.454 682.9 545.651 685.463C542.827 688.026 539.484 690.048 535.619 691.53C531.755 692.991 527.41 693.722 522.585 693.722ZM575.775 693.842C572.13 693.842 568.867 693.202 565.983 691.92C563.1 690.619 560.828 688.697 559.166 686.154C557.504 683.611 556.673 680.437 556.673 676.633C556.673 673.449 557.264 670.776 558.445 668.614C559.626 666.471 561.228 664.75 563.25 663.448C565.293 662.147 567.605 661.155 570.188 660.475C572.771 659.794 575.484 659.313 578.327 659.033C581.651 658.693 584.324 658.372 586.346 658.072C588.389 657.792 589.88 657.331 590.822 656.69C591.763 656.07 592.233 655.139 592.233 653.897V653.627C592.233 651.985 591.893 650.604 591.212 649.482C590.531 648.361 589.52 647.5 588.179 646.899C586.837 646.299 585.195 645.998 583.253 645.998C581.271 645.998 579.539 646.299 578.057 646.899C576.595 647.5 575.404 648.291 574.483 649.272C573.562 650.273 572.871 651.384 572.411 652.606L558.325 650.263C559.306 646.939 560.948 644.116 563.25 641.794C565.533 639.451 568.376 637.669 571.78 636.448C575.184 635.206 579.008 634.585 583.253 634.585C586.377 634.585 589.39 634.956 592.293 635.697C595.196 636.438 597.799 637.579 600.102 639.121C602.425 640.662 604.257 642.665 605.598 645.127C606.96 647.59 607.64 650.564 607.64 654.047V692.701H593.044V684.742H592.533C591.612 686.524 590.381 688.086 588.839 689.427C587.298 690.789 585.445 691.86 583.283 692.641C581.101 693.442 578.598 693.842 575.775 693.842ZM580.129 683C582.552 683 584.685 682.52 586.527 681.558C588.349 680.597 589.77 679.296 590.791 677.654C591.833 676.012 592.353 674.18 592.353 672.158V665.971C591.893 666.311 591.202 666.612 590.281 666.872C589.36 667.152 588.339 667.393 587.217 667.593C586.076 667.813 584.965 668.003 583.884 668.163C582.782 668.344 581.801 668.484 580.94 668.584C579.058 668.844 577.396 669.285 575.955 669.905C574.533 670.526 573.422 671.337 572.621 672.338C571.84 673.359 571.45 674.651 571.45 676.212C571.45 677.694 571.83 678.936 572.591 679.937C573.332 680.958 574.343 681.719 575.624 682.219C576.906 682.74 578.408 683 580.129 683ZM629.355 692.701H613.948V635.306H628.814V645.338H629.445C630.506 641.774 632.278 639.081 634.761 637.259C637.244 635.456 640.087 634.555 643.291 634.555C644.092 634.555 644.943 634.595 645.844 634.676C646.745 634.756 647.556 634.886 648.276 635.066V648.822C647.596 648.581 646.604 648.391 645.303 648.251C644.002 648.111 642.77 648.041 641.609 648.041C639.286 648.041 637.184 648.551 635.302 649.572C633.42 650.574 631.958 651.975 630.917 653.777C629.876 655.559 629.355 657.652 629.355 660.054V692.701ZM675.847 693.842C669.981 693.842 664.935 692.641 660.71 690.238C656.466 687.836 653.202 684.432 650.919 680.027C648.637 675.602 647.495 670.366 647.495 664.319C647.495 658.392 648.627 653.206 650.889 648.761C653.152 644.316 656.355 640.843 660.5 638.34C664.625 635.837 669.48 634.585 675.067 634.585C678.831 634.585 682.335 635.186 685.578 636.388C688.842 637.589 691.705 639.401 694.168 641.824C696.631 644.226 698.553 647.24 699.935 650.864C701.316 654.488 702.007 658.763 702.007 663.688V668.013H653.833V658.372H694.468L687.29 660.925C687.29 657.942 686.83 655.349 685.909 653.146C685.008 650.944 683.656 649.232 681.854 648.011C680.072 646.809 677.84 646.209 675.157 646.209C672.534 646.209 670.291 646.819 668.429 648.041C666.567 649.282 665.155 650.954 664.194 653.056C663.233 655.159 662.753 657.561 662.753 660.264V667.082C662.753 670.406 663.303 673.199 664.405 675.462C665.526 677.724 667.088 679.416 669.09 680.537C671.092 681.659 673.425 682.219 676.088 682.219C677.91 682.219 679.552 681.969 681.013 681.468C682.495 680.948 683.756 680.187 684.798 679.186C685.839 678.165 686.63 676.923 687.17 675.462L701.136 678.075C700.215 681.218 698.613 683.981 696.331 686.364C694.028 688.747 691.155 690.589 687.711 691.89C684.287 693.192 680.333 693.842 675.847 693.842ZM731.62 693.842C725.774 693.842 720.728 692.641 716.483 690.238C712.238 687.836 708.975 684.432 706.692 680.027C704.43 675.602 703.298 670.366 703.298 664.319C703.298 658.392 704.43 653.206 706.692 648.761C708.935 644.316 712.128 640.843 716.273 638.34C720.418 635.837 725.283 634.585 730.87 634.585C734.614 634.585 738.118 635.186 741.381 636.388C744.625 637.589 747.478 639.401 749.941 641.824C752.404 644.226 754.336 647.24 755.738 650.864C757.119 654.488 757.81 658.763 757.81 663.688V668.013H709.606V658.372H750.241L743.063 660.925C743.063 657.942 742.613 655.349 741.712 653.146C740.811 650.944 739.459 649.232 737.657 648.011C735.855 646.809 733.623 646.209 730.96 646.209C728.317 646.209 726.064 646.819 724.202 648.041C722.34 649.282 720.928 650.954 719.967 653.056C719.006 655.159 718.526 657.561 718.526 660.264V667.082C718.526 670.406 719.086 673.199 720.208 675.462C721.309 677.724 722.86 679.416 724.863 680.537C726.865 681.659 729.208 682.219 731.891 682.219C733.693 682.219 735.335 681.969 736.816 681.468C738.278 680.948 739.529 680.187 740.57 679.186C741.612 678.165 742.413 676.923 742.973 675.462L756.939 678.075C756.018 681.218 754.406 683.981 752.103 686.364C749.821 688.747 746.958 690.589 743.514 691.89C740.07 693.192 736.105 693.842 731.62 693.842ZM776.881 692.701H761.504V635.306H776.371V645.338H777.002C778.063 641.774 779.835 639.081 782.318 637.259C784.78 635.456 787.624 634.555 790.847 634.555C791.628 634.555 792.479 634.595 793.4 634.676C794.301 634.756 795.112 634.886 795.833 635.066V648.822C795.152 648.581 794.161 648.391 792.859 648.251C791.558 648.111 790.327 648.041 789.165 648.041C786.823 648.041 784.71 648.551 782.828 649.572C780.966 650.574 779.504 651.975 778.443 653.777C777.402 655.559 776.881 657.652 776.881 660.054V692.701ZM831.843 692.701H813.943L793.4 616.235H810.489L819.379 653.837C820.1 657.001 820.761 660.365 821.362 663.929C821.962 667.513 822.553 671.107 823.134 674.711C823.714 678.315 824.275 681.779 824.816 685.102H822.052C822.673 681.779 823.284 678.315 823.884 674.711C824.505 671.107 825.146 667.513 825.807 663.929C826.447 660.365 827.158 657.001 827.939 653.837L837.31 616.235H853.558L862.868 653.837C863.649 657.001 864.36 660.365 865.001 663.929C865.662 667.513 866.302 671.107 866.923 674.711C867.564 678.315 868.194 681.779 868.815 685.102H865.932C866.513 681.779 867.083 678.315 867.644 674.711C868.225 671.107 868.825 667.513 869.446 663.929C870.087 660.365 870.747 657.001 871.428 653.837L880.318 616.235H897.437L876.864 692.701H858.994L848.843 653.597C847.741 649.252 846.81 644.537 846.049 639.451C845.269 634.365 844.408 629.159 843.467 623.833H847.341C846.3 629.059 845.439 634.175 844.758 639.181C844.097 644.166 843.166 648.972 841.965 653.597L831.843 692.701ZM915.097 692.701H899.69V635.306H915.097V692.701ZM907.409 627.828C905.086 627.828 903.104 627.057 901.462 625.515C899.82 623.974 898.999 622.111 898.999 619.929C898.999 617.726 899.82 615.854 901.462 614.313C903.104 612.771 905.086 612 907.409 612C909.731 612 911.724 612.771 913.385 614.313C915.047 615.834 915.878 617.706 915.878 619.929C915.878 622.111 915.047 623.974 913.385 625.515C911.724 627.057 909.731 627.828 907.409 627.828ZM944.14 693.842C939.535 693.842 935.45 693.182 931.886 691.86C928.322 690.539 925.409 688.616 923.146 686.094C920.884 683.591 919.432 680.557 918.792 676.993L933.118 674.531C933.859 677.194 935.17 679.196 937.052 680.537C938.934 681.879 941.457 682.55 944.621 682.55C947.524 682.55 949.827 681.989 951.528 680.868C953.25 679.766 954.111 678.355 954.111 676.633C954.111 675.131 953.501 673.9 952.279 672.939C951.058 671.978 949.206 671.247 946.723 670.746L936.812 668.674C931.266 667.553 927.121 665.631 924.378 662.907C921.655 660.184 920.293 656.68 920.293 652.396C920.293 648.711 921.294 645.538 923.297 642.875C925.319 640.232 928.132 638.19 931.736 636.748C935.32 635.306 939.545 634.585 944.41 634.585C948.916 634.585 952.83 635.216 956.154 636.478C959.477 637.719 962.16 639.491 964.203 641.794C966.265 644.076 967.637 646.779 968.317 649.903L954.682 652.305C954.101 650.363 952.98 648.761 951.318 647.5C949.656 646.259 947.424 645.638 944.621 645.638C942.078 645.638 939.955 646.169 938.254 647.23C936.532 648.291 935.671 649.693 935.671 651.434C935.671 652.896 936.231 654.128 937.352 655.129C938.454 656.13 940.356 656.901 943.059 657.441L953.391 659.484C958.937 660.625 963.062 662.467 965.765 665.01C968.468 667.553 969.819 670.876 969.819 674.981C969.819 678.745 968.718 682.039 966.515 684.862C964.333 687.685 961.32 689.888 957.475 691.47C953.611 693.051 949.166 693.842 944.14 693.842ZM999.312 693.842C993.466 693.842 988.42 692.641 984.175 690.238C979.931 687.836 976.667 684.432 974.384 680.027C972.122 675.602 970.99 670.366 970.99 664.319C970.99 658.392 972.122 653.206 974.384 648.761C976.627 644.316 979.82 640.843 983.965 638.34C988.11 635.837 992.975 634.585 998.562 634.585C1002.33 634.585 1005.83 635.186 1009.07 636.388C1012.32 637.589 1015.17 639.401 1017.63 641.824C1020.1 644.226 1022.03 647.24 1023.43 650.864C1024.81 654.488 1025.5 658.763 1025.5 663.688V668.013H977.298V658.372H1017.96L1010.76 660.925C1010.76 657.942 1010.3 655.349 1009.4 653.146C1008.5 650.944 1007.15 649.232 1005.35 648.011C1003.55 646.809 1001.31 646.209 998.652 646.209C996.009 646.209 993.756 646.819 991.894 648.041C990.032 649.282 988.62 650.954 987.659 653.056C986.698 655.159 986.218 657.561 986.218 660.264V667.082C986.218 670.406 986.778 673.199 987.9 675.462C989.001 677.724 990.553 679.416 992.555 680.537C994.557 681.659 996.9 682.219 999.583 682.219C1001.38 682.219 1003.03 681.969 1004.51 681.468C1005.97 680.948 1007.22 680.187 1008.26 679.186C1009.32 678.165 1010.12 676.923 1010.67 675.462L1024.63 678.075C1023.71 681.218 1022.1 683.981 1019.8 686.364C1017.51 688.747 1014.65 690.589 1011.21 691.89C1007.76 693.192 1003.8 693.842 999.312 693.842ZM1060.49 692.701H1043.19L1069.32 616.235H1089.83L1116.62 692.701H1099.24L1086.98 655.789C1085.5 651.044 1084 645.838 1082.48 640.172C1080.95 634.505 1079.35 628.318 1077.67 621.611H1081.06C1079.46 628.358 1077.95 634.575 1076.53 640.262C1075.11 645.968 1073.7 651.144 1072.29 655.789L1060.49 692.701ZM1100.32 674.951H1059.5V662.667H1100.32V674.951ZM1119.24 616.235H1134.92V692.701H1119.24V616.235Z" fill="#111111"/>
<path d="M537.692 751.388C537.475 749.202 536.51 747.463 534.797 746.172C533.083 744.881 530.929 744.235 528.334 744.235C526.506 744.235 524.895 744.548 523.502 745.175C522.121 745.801 521.034 746.67 520.242 747.783C519.462 748.882 519.072 750.135 519.072 751.541C519.072 752.577 519.296 753.484 519.743 754.264C520.191 755.044 520.792 755.715 521.546 756.278C522.313 756.827 523.157 757.3 524.077 757.697C525.01 758.093 525.95 758.425 526.896 758.694L531.038 759.883C532.291 760.228 533.544 760.669 534.797 761.206C536.049 761.743 537.194 762.42 538.229 763.239C539.277 764.044 540.115 765.035 540.741 766.211C541.38 767.374 541.7 768.774 541.7 770.411C541.7 772.507 541.157 774.393 540.07 776.067C538.983 777.742 537.424 779.072 535.391 780.056C533.358 781.028 530.923 781.514 528.085 781.514C525.413 781.514 523.093 781.072 521.124 780.19C519.155 779.295 517.608 778.062 516.483 776.489C515.358 774.917 514.725 773.095 514.585 771.024H518.267C518.395 772.571 518.906 773.881 519.801 774.955C520.696 776.029 521.859 776.847 523.291 777.41C524.723 777.96 526.321 778.234 528.085 778.234C530.041 778.234 531.779 777.908 533.301 777.256C534.835 776.592 536.037 775.671 536.906 774.495C537.788 773.306 538.229 771.925 538.229 770.353C538.229 769.023 537.884 767.911 537.194 767.016C536.503 766.109 535.538 765.348 534.298 764.734C533.071 764.121 531.645 763.577 530.022 763.104L525.324 761.724C522.243 760.803 519.852 759.531 518.152 757.908C516.451 756.284 515.601 754.213 515.601 751.695C515.601 749.585 516.164 747.732 517.289 746.134C518.426 744.523 519.961 743.27 521.891 742.375C523.834 741.467 526.014 741.014 528.43 741.014C530.872 741.014 533.032 741.461 534.912 742.356C536.791 743.251 538.28 744.484 539.38 746.057C540.492 747.616 541.086 749.393 541.163 751.388H537.692ZM561.221 751.388V754.36H547.165V751.388H561.221ZM551.556 744.331H554.989V773.153C554.989 774.38 555.2 775.345 555.622 776.048C556.044 776.739 556.593 777.231 557.271 777.525C557.949 777.806 558.671 777.947 559.438 777.947C559.885 777.947 560.269 777.921 560.588 777.87C560.908 777.806 561.189 777.742 561.432 777.678L562.161 780.766C561.828 780.893 561.419 781.009 560.934 781.111C560.448 781.226 559.847 781.283 559.131 781.283C557.878 781.283 556.67 781.009 555.507 780.459C554.356 779.909 553.41 779.091 552.669 778.004C551.927 776.918 551.556 775.569 551.556 773.958V744.331ZM577.2 781.514C575.423 781.514 573.799 781.168 572.329 780.478C570.859 779.775 569.689 778.765 568.82 777.448C567.95 776.119 567.516 774.508 567.516 772.616C567.516 771.158 567.791 769.931 568.34 768.934C568.89 767.937 569.67 767.119 570.68 766.479C571.69 765.84 572.885 765.335 574.266 764.965C575.646 764.594 577.168 764.306 578.83 764.102C580.479 763.897 581.872 763.718 583.01 763.565C584.161 763.411 585.036 763.168 585.637 762.836C586.238 762.504 586.539 761.967 586.539 761.225V760.535C586.539 758.528 585.938 756.949 584.736 755.798C583.547 754.635 581.834 754.053 579.597 754.053C577.475 754.053 575.742 754.52 574.4 755.453C573.07 756.386 572.137 757.486 571.6 758.751L568.36 757.582C569.024 755.971 569.945 754.686 571.121 753.727C572.297 752.756 573.614 752.059 575.071 751.637C576.529 751.202 578.005 750.985 579.501 750.985C580.626 750.985 581.796 751.132 583.01 751.426C584.237 751.72 585.375 752.232 586.423 752.96C587.472 753.676 588.322 754.68 588.974 755.971C589.626 757.249 589.952 758.873 589.952 760.842V780.842H586.539V776.183H586.328C585.919 777.052 585.311 777.896 584.506 778.714C583.7 779.532 582.691 780.203 581.476 780.727C580.262 781.251 578.836 781.514 577.2 781.514ZM577.66 778.388C579.475 778.388 581.048 777.985 582.377 777.18C583.707 776.374 584.73 775.307 585.445 773.977C586.174 772.635 586.539 771.158 586.539 769.548V765.29C586.283 765.533 585.855 765.751 585.254 765.942C584.666 766.134 583.982 766.307 583.202 766.46C582.435 766.601 581.668 766.722 580.901 766.825C580.134 766.927 579.443 767.016 578.83 767.093C577.168 767.298 575.749 767.617 574.573 768.052C573.396 768.487 572.495 769.087 571.869 769.854C571.242 770.609 570.929 771.58 570.929 772.769C570.929 774.559 571.568 775.946 572.847 776.93C574.125 777.902 575.73 778.388 577.66 778.388ZM599.032 780.842V751.388H602.349V755.913H602.599C603.187 754.43 604.209 753.235 605.667 752.327C607.137 751.407 608.799 750.947 610.653 750.947C610.934 750.947 611.247 750.953 611.592 750.966C611.937 750.979 612.225 750.991 612.455 751.004V754.475C612.302 754.45 612.033 754.411 611.65 754.36C611.266 754.309 610.851 754.283 610.403 754.283C608.869 754.283 607.501 754.609 606.3 755.261C605.111 755.901 604.171 756.789 603.481 757.927C602.79 759.065 602.445 760.362 602.445 761.82V780.842H599.032ZM631.727 751.388V754.36H617.671V751.388H631.727ZM622.062 744.331H625.495V773.153C625.495 774.38 625.706 775.345 626.128 776.048C626.55 776.739 627.099 777.231 627.777 777.525C628.454 777.806 629.177 777.947 629.944 777.947C630.391 777.947 630.775 777.921 631.094 777.87C631.414 777.806 631.695 777.742 631.938 777.678L632.667 780.766C632.334 780.893 631.925 781.009 631.439 781.111C630.954 781.226 630.353 781.283 629.637 781.283C628.384 781.283 627.176 781.009 626.013 780.459C624.862 779.909 623.916 779.091 623.175 778.004C622.433 776.918 622.062 775.569 622.062 773.958V744.331ZM651.694 741.57H655.836L667.476 760.209H667.821L679.461 741.57H683.603L669.432 763.833V780.842H665.865V763.833L651.694 741.57ZM696.912 781.456C694.368 781.456 692.118 780.81 690.162 779.519C688.218 778.228 686.697 776.445 685.598 774.169C684.498 771.881 683.949 769.241 683.949 766.249C683.949 763.232 684.498 760.58 685.598 758.291C686.697 755.99 688.218 754.2 690.162 752.922C692.118 751.631 694.368 750.985 696.912 750.985C699.456 750.985 701.699 751.631 703.642 752.922C705.586 754.213 707.107 756.003 708.206 758.291C709.319 760.58 709.875 763.232 709.875 766.249C709.875 769.241 709.325 771.881 708.225 774.169C707.126 776.445 705.598 778.228 703.642 779.519C701.699 780.81 699.456 781.456 696.912 781.456ZM696.912 778.33C698.957 778.33 700.689 777.781 702.108 776.681C703.527 775.582 704.601 774.118 705.33 772.29C706.071 770.462 706.442 768.448 706.442 766.249C706.442 764.05 706.071 762.031 705.33 760.19C704.601 758.349 703.527 756.872 702.108 755.76C700.689 754.648 698.957 754.092 696.912 754.092C694.879 754.092 693.147 754.648 691.715 755.76C690.296 756.872 689.216 758.349 688.474 760.19C687.745 762.031 687.381 764.05 687.381 766.249C687.381 768.448 687.745 770.462 688.474 772.29C689.216 774.118 690.296 775.582 691.715 776.681C693.134 777.781 694.866 778.33 696.912 778.33ZM736.084 769.586V751.388H739.497V780.842H736.084V775.952H735.815C735.125 777.461 734.032 778.72 732.536 779.73C731.04 780.727 729.212 781.226 727.052 781.226C725.172 781.226 723.504 780.817 722.047 779.999C720.589 779.168 719.445 777.953 718.614 776.355C717.783 774.757 717.368 772.795 717.368 770.468V751.388H720.781V770.257C720.781 772.558 721.459 774.412 722.814 775.818C724.169 777.212 725.907 777.908 728.03 777.908C729.359 777.908 730.638 777.589 731.865 776.95C733.092 776.31 734.102 775.377 734.895 774.15C735.687 772.91 736.084 771.389 736.084 769.586ZM748.534 780.842V751.388H751.851V755.913H752.1C752.689 754.43 753.711 753.235 755.169 752.327C756.639 751.407 758.301 750.947 760.154 750.947C760.436 750.947 760.749 750.953 761.094 750.966C761.439 750.979 761.727 750.991 761.957 751.004V754.475C761.804 754.45 761.535 754.411 761.152 754.36C760.768 754.309 760.353 754.283 759.905 754.283C758.371 754.283 757.003 754.609 755.801 755.261C754.613 755.901 753.673 756.789 752.983 757.927C752.292 759.065 751.947 760.362 751.947 761.82V780.842H748.534ZM814.437 753.842H810.832C810.564 752.5 810.078 751.26 809.375 750.122C808.684 748.972 807.815 747.968 806.767 747.112C805.719 746.255 804.53 745.59 803.2 745.117C801.871 744.644 800.432 744.408 798.885 744.408C796.405 744.408 794.143 745.053 792.097 746.344C790.064 747.636 788.434 749.534 787.207 752.04C785.993 754.533 785.385 757.588 785.385 761.206C785.385 764.849 785.993 767.918 787.207 770.411C788.434 772.903 790.064 774.795 792.097 776.087C794.143 777.365 796.405 778.004 798.885 778.004C800.432 778.004 801.871 777.768 803.2 777.295C804.53 776.822 805.719 776.163 806.767 775.32C807.815 774.463 808.684 773.46 809.375 772.309C810.078 771.158 810.564 769.912 810.832 768.57H814.437C814.118 770.372 813.517 772.053 812.635 773.613C811.765 775.16 810.653 776.515 809.298 777.678C807.956 778.842 806.409 779.749 804.657 780.401C802.906 781.053 800.982 781.379 798.885 781.379C795.587 781.379 792.66 780.555 790.103 778.906C787.546 777.244 785.539 774.904 784.081 771.887C782.637 768.87 781.915 765.31 781.915 761.206C781.915 757.102 782.637 753.542 784.081 750.525C785.539 747.508 787.546 745.175 790.103 743.526C792.66 741.864 795.587 741.033 798.885 741.033C800.982 741.033 802.906 741.359 804.657 742.011C806.409 742.65 807.956 743.558 809.298 744.734C810.653 745.897 811.765 747.252 812.635 748.799C813.517 750.346 814.118 752.027 814.437 753.842ZM830.377 781.514C828.6 781.514 826.977 781.168 825.507 780.478C824.037 779.775 822.867 778.765 821.998 777.448C821.128 776.119 820.694 774.508 820.694 772.616C820.694 771.158 820.968 769.931 821.518 768.934C822.068 767.937 822.848 767.119 823.858 766.479C824.868 765.84 826.063 765.335 827.444 764.965C828.824 764.594 830.346 764.306 832.007 764.102C833.657 763.897 835.05 763.718 836.188 763.565C837.338 763.411 838.214 763.168 838.815 762.836C839.416 762.504 839.716 761.967 839.716 761.225V760.535C839.716 758.528 839.115 756.949 837.914 755.798C836.725 754.635 835.012 754.053 832.775 754.053C830.652 754.053 828.92 754.52 827.578 755.453C826.248 756.386 825.315 757.486 824.778 758.751L821.537 757.582C822.202 755.971 823.123 754.686 824.299 753.727C825.475 752.756 826.792 752.059 828.249 751.637C829.706 751.202 831.183 750.985 832.679 750.985C833.804 750.985 834.973 751.132 836.188 751.426C837.415 751.72 838.553 752.232 839.601 752.96C840.65 753.676 841.5 754.68 842.152 755.971C842.804 757.249 843.13 758.873 843.13 760.842V780.842H839.716V776.183H839.505C839.096 777.052 838.489 777.896 837.684 778.714C836.878 779.532 835.868 780.203 834.654 780.727C833.439 781.251 832.014 781.514 830.377 781.514ZM830.838 778.388C832.653 778.388 834.225 777.985 835.555 777.18C836.885 776.374 837.907 775.307 838.623 773.977C839.352 772.635 839.716 771.158 839.716 769.548V765.29C839.461 765.533 839.032 765.751 838.431 765.942C837.843 766.134 837.159 766.307 836.38 766.46C835.613 766.601 834.846 766.722 834.078 766.825C833.311 766.927 832.621 767.016 832.007 767.093C830.346 767.298 828.926 767.617 827.75 768.052C826.574 768.487 825.673 769.087 825.047 769.854C824.42 770.609 824.107 771.58 824.107 772.769C824.107 774.559 824.746 775.946 826.025 776.93C827.303 777.902 828.907 778.388 830.838 778.388ZM852.21 780.842V751.388H855.527V755.913H855.776C856.364 754.43 857.387 753.235 858.844 752.327C860.315 751.407 861.977 750.947 863.83 750.947C864.112 750.947 864.425 750.953 864.77 750.966C865.115 750.979 865.403 750.991 865.633 751.004V754.475C865.479 754.45 865.211 754.411 864.827 754.36C864.444 754.309 864.028 754.283 863.581 754.283C862.047 754.283 860.679 754.609 859.477 755.261C858.288 755.901 857.349 756.789 856.658 757.927C855.968 759.065 855.623 760.362 855.623 761.82V780.842H852.21ZM882.469 781.456C879.721 781.456 877.343 780.817 875.336 779.538C873.329 778.247 871.776 776.464 870.676 774.188C869.589 771.9 869.046 769.266 869.046 766.288C869.046 763.322 869.589 760.688 870.676 758.387C871.776 756.073 873.29 754.264 875.221 752.96C877.164 751.643 879.408 750.985 881.952 750.985C883.55 750.985 885.09 751.279 886.573 751.867C888.056 752.442 889.386 753.331 890.562 754.533C891.751 755.722 892.69 757.224 893.381 759.039C894.071 760.842 894.416 762.977 894.416 765.444V767.131H871.405V764.121H890.926C890.926 762.229 890.543 760.528 889.776 759.02C889.021 757.499 887.967 756.297 886.612 755.415C885.269 754.533 883.716 754.092 881.952 754.092C880.085 754.092 878.442 754.59 877.023 755.587C875.604 756.585 874.492 757.901 873.687 759.538C872.894 761.174 872.491 762.964 872.479 764.907V766.71C872.479 769.049 872.881 771.094 873.687 772.846C874.505 774.585 875.662 775.933 877.158 776.892C878.653 777.851 880.424 778.33 882.469 778.33C883.863 778.33 885.084 778.113 886.132 777.678C887.193 777.244 888.082 776.662 888.798 775.933C889.526 775.192 890.076 774.38 890.447 773.498L893.688 774.553C893.24 775.793 892.505 776.937 891.482 777.985C890.472 779.033 889.207 779.877 887.685 780.516C886.177 781.143 884.438 781.456 882.469 781.456ZM913.846 781.456C911.098 781.456 908.72 780.817 906.713 779.538C904.706 778.247 903.153 776.464 902.053 774.188C900.966 771.9 900.423 769.266 900.423 766.288C900.423 763.322 900.966 760.688 902.053 758.387C903.153 756.073 904.667 754.264 906.598 752.96C908.541 751.643 910.785 750.985 913.329 750.985C914.927 750.985 916.467 751.279 917.95 751.867C919.433 752.442 920.763 753.331 921.939 754.533C923.128 755.722 924.067 757.224 924.758 759.039C925.448 760.842 925.793 762.977 925.793 765.444V767.131H902.782V764.121H922.303C922.303 762.229 921.92 760.528 921.153 759.02C920.398 757.499 919.344 756.297 917.988 755.415C916.646 754.533 915.093 754.092 913.329 754.092C911.462 754.092 909.819 754.59 908.4 755.587C906.981 756.585 905.869 757.901 905.064 759.538C904.271 761.174 903.868 762.964 903.856 764.907V766.71C903.856 769.049 904.258 771.094 905.064 772.846C905.882 774.585 907.039 775.933 908.535 776.892C910.03 777.851 911.801 778.33 913.846 778.33C915.24 778.33 916.461 778.113 917.509 777.678C918.57 777.244 919.459 776.662 920.175 775.933C920.903 775.192 921.453 774.38 921.824 773.498L925.064 774.553C924.617 775.793 923.882 776.937 922.859 777.985C921.849 779.033 920.584 779.877 919.062 780.516C917.554 781.143 915.815 781.456 913.846 781.456ZM933.315 780.842V751.388H936.632V755.913H936.882C937.47 754.43 938.493 753.235 939.95 752.327C941.42 751.407 943.082 750.947 944.936 750.947C945.217 750.947 945.53 750.953 945.875 750.966C946.221 750.979 946.508 750.991 946.738 751.004V754.475C946.585 754.45 946.316 754.411 945.933 754.36C945.549 754.309 945.134 754.283 944.686 754.283C943.152 754.283 941.784 754.609 940.583 755.261C939.394 755.901 938.454 756.789 937.764 757.927C937.074 759.065 936.728 760.362 936.728 761.82V780.842H933.315ZM954.864 775.473L954.519 777.525C954.302 778.906 953.995 780.427 953.599 782.089C953.202 783.751 952.793 785.33 952.371 786.825C951.949 788.321 951.585 789.523 951.278 790.43H948.651C948.817 789.561 949.028 788.455 949.284 787.113C949.552 785.771 949.827 784.281 950.108 782.645C950.39 781.021 950.645 779.347 950.876 777.621L951.144 775.473H954.864ZM986.625 780.842L975.867 741.57H979.51L988.408 775.339H988.715L997.613 741.57H1001.75L1010.65 775.339H1010.96L1019.86 741.57H1023.52L1012.76 780.842H1008.93L999.818 747.533H999.569L990.46 780.842H986.625ZM1029.33 780.842V751.388H1032.76V780.842H1029.33ZM1031.07 746.325C1030.37 746.325 1029.77 746.089 1029.27 745.616C1028.77 745.13 1028.52 744.548 1028.52 743.871C1028.52 743.193 1028.77 742.618 1029.27 742.145C1029.77 741.659 1030.37 741.416 1031.07 741.416C1031.78 741.416 1032.38 741.659 1032.88 742.145C1033.38 742.618 1033.63 743.193 1033.63 743.871C1033.63 744.548 1033.38 745.13 1032.88 745.616C1032.38 746.089 1031.78 746.325 1031.07 746.325ZM1061.58 757.85L1058.45 758.732C1058.15 757.85 1057.71 757.051 1057.15 756.335C1056.59 755.619 1055.85 755.05 1054.94 754.629C1054.05 754.207 1052.94 753.996 1051.61 753.996C1049.61 753.996 1047.98 754.469 1046.7 755.415C1045.42 756.361 1044.78 757.582 1044.78 759.077C1044.78 760.343 1045.22 761.372 1046.09 762.165C1046.97 762.945 1048.32 763.565 1050.15 764.025L1054.6 765.118C1057.07 765.719 1058.91 766.671 1060.14 767.975C1061.38 769.279 1062 770.915 1062 772.884C1062 774.546 1061.54 776.023 1060.62 777.314C1059.7 778.605 1058.42 779.621 1056.77 780.363C1055.13 781.092 1053.23 781.456 1051.07 781.456C1048.19 781.456 1045.82 780.81 1043.96 779.519C1042.09 778.215 1040.89 776.336 1040.37 773.881L1043.65 773.076C1044.07 774.827 1044.9 776.151 1046.12 777.045C1047.36 777.94 1048.99 778.388 1051.01 778.388C1053.28 778.388 1055.09 777.883 1056.44 776.873C1057.8 775.85 1058.47 774.572 1058.47 773.038C1058.47 771.849 1058.08 770.852 1057.28 770.046C1056.49 769.228 1055.29 768.627 1053.68 768.244L1048.87 767.093C1046.31 766.479 1044.42 765.508 1043.19 764.178C1041.96 762.849 1041.35 761.2 1041.35 759.231C1041.35 757.607 1041.79 756.182 1042.67 754.955C1043.55 753.715 1044.77 752.743 1046.32 752.04C1047.86 751.337 1049.63 750.985 1051.61 750.985C1054.31 750.985 1056.46 751.599 1058.07 752.826C1059.69 754.04 1060.86 755.715 1061.58 757.85ZM1081.38 781.456C1078.63 781.456 1076.26 780.817 1074.25 779.538C1072.24 778.247 1070.69 776.464 1069.59 774.188C1068.5 771.9 1067.96 769.266 1067.96 766.288C1067.96 763.322 1068.5 760.688 1069.59 758.387C1070.69 756.073 1072.2 754.264 1074.13 752.96C1076.08 751.643 1078.32 750.985 1080.87 750.985C1082.46 750.985 1084 751.279 1085.49 751.867C1086.97 752.442 1088.3 753.331 1089.48 754.533C1090.66 755.722 1091.6 757.224 1092.29 759.039C1092.99 760.842 1093.33 762.977 1093.33 765.444V767.131H1070.32V764.121H1089.84C1089.84 762.229 1089.46 760.528 1088.69 759.02C1087.94 757.499 1086.88 756.297 1085.53 755.415C1084.18 754.533 1082.63 754.092 1080.87 754.092C1079 754.092 1077.36 754.59 1075.94 755.587C1074.52 756.585 1073.41 757.901 1072.6 759.538C1071.81 761.174 1071.41 762.964 1071.39 764.907V766.71C1071.39 769.049 1071.8 771.094 1072.6 772.846C1073.42 774.585 1074.58 775.933 1076.07 776.892C1077.57 777.851 1079.34 778.33 1081.38 778.33C1082.78 778.33 1084 778.113 1085.05 777.678C1086.11 777.244 1087 776.662 1087.71 775.933C1088.44 775.192 1088.99 774.38 1089.36 773.498L1092.6 774.553C1092.15 775.793 1091.42 776.937 1090.4 777.985C1089.39 779.033 1088.12 779.877 1086.6 780.516C1085.09 781.143 1083.35 781.456 1081.38 781.456ZM1103.58 781.13C1102.82 781.13 1102.17 780.862 1101.62 780.325C1101.08 779.775 1100.81 779.123 1100.81 778.369C1100.81 777.602 1101.08 776.95 1101.62 776.413C1102.17 775.876 1102.82 775.607 1103.58 775.607C1104.34 775.607 1104.99 775.876 1105.53 776.413C1106.07 776.95 1106.34 777.602 1106.34 778.369C1106.34 778.867 1106.21 779.327 1105.95 779.749C1105.71 780.171 1105.38 780.51 1104.96 780.766C1104.55 781.009 1104.09 781.13 1103.58 781.13Z" fill="#272828"/>
<defs>
<filter id="filter0_f_60_125" x="671" y="202" width="281" height="282" filterUnits="userSpaceOnUse" color-interpolation-filters="sRGB">
<feFlood flood-opacity="0" result="BackgroundImageFix"/>
<feBlend mode="normal" in="SourceGraphic" in2="BackgroundImageFix" result="shape"/>
<feGaussianBlur stdDeviation="1" result="effect1_foregroundBlur_60_125"/>
</filter>
<linearGradient id="paint0_linear_60_125" x1="800" y1="-35" x2="800" y2="3013" gradientUnits="userSpaceOnUse">
<stop offset="0.0139943" stop-color="#F5F4FF"/>
<stop offset="1" stop-color="#9333EA"/>
</linearGradient>
<linearGradient id="paint1_linear_60_125" x1="584.5" y1="116" x2="1037.5" y2="569" gradientUnits="userSpaceOnUse">
<stop stop-color="#4F46E5" stop-opacity="0.5"/>
<stop offset="1" stop-color="#9333EA"/>
</linearGradient>
<radialGradient id="paint2_radial_60_125" cx="0" cy="0" r="1" gradientUnits="userSpaceOnUse" gradientTransform="translate(794.88 281.84) scale(188.36 189.04)">
<stop stop-color="white"/>
<stop offset="1" stop-color="#E6E1FF" stop-opacity="0.9"/>
</radialGradient>
<clipPath id="clip0_60_125">
<rect width="453" height="453" fill="white" transform="translate(584.5 116)"/>
</clipPath>
</defs>
</svg>
