<svg width="1600" height="900" viewBox="0 0 1600 900" fill="none" xmlns="http://www.w3.org/2000/svg">
<rect width="1600" height="900" fill="url(#paint0_linear_57_76)"/>
<path d="M631.975 198.454L631.942 198.415L704.005 135.225C718.781 121.949 737.886 114.428 757.802 114.056L757.969 114.053L1004.92 114.053C1014.07 113.669 1023.18 115.38 1031.55 119.052C1040.07 122.788 1047.6 128.456 1053.52 135.606C1059.45 142.752 1063.61 151.176 1065.68 160.206C1067.71 169.079 1067.67 178.308 1065.54 187.165L1046.53 283.914C1044.84 292.337 1040.37 299.959 1033.83 305.57L1032.89 306.369C1034.92 309.422 1036.4 312.805 1037.27 316.369C1038.42 321.096 1038.46 326.015 1037.4 330.746L1018.35 427.676L1018.32 427.813C1014.61 445.206 1005.27 460.91 991.731 472.519L925.752 530.373C922.699 533.858 919.348 537.104 915.722 540.072C901.28 551.895 883.307 558.628 864.612 559.224L864.302 559.233L617.047 558.526C607.915 558.906 598.816 557.195 590.453 553.526C581.931 549.789 574.404 544.122 568.477 536.974C562.549 529.828 558.386 521.402 556.317 512.37C554.285 503.493 554.332 494.272 556.453 485.419L603.681 244.487L603.749 244.194C607.897 226.291 617.812 210.231 631.975 198.454Z" fill="#207D83"/>
<path d="M620.905 536.264C614.41 536.591 607.927 535.395 601.976 532.772C596.025 530.149 590.77 526.173 586.632 521.158C582.494 516.144 579.587 510.232 578.142 503.895C576.699 497.557 576.758 490.969 578.316 484.659L625.342 243.572C628.644 229.248 636.598 216.419 647.961 207.083C659.323 197.749 673.459 192.434 688.161 191.968L934.201 191.968C940.698 191.645 947.182 192.841 953.135 195.464C959.088 198.086 964.346 202.061 968.491 207.073C972.635 212.084 975.552 217.994 977.008 224.331C978.464 230.666 978.42 237.257 976.879 243.572L957.891 341.106C956.778 345.867 954.121 350.126 950.334 353.22C946.547 356.316 941.842 358.073 936.951 358.219C892.055 356.623 848.934 353.255 808.74 338.801L799.868 283.029C799.651 281.682 798.94 280.466 797.874 279.613C796.808 278.761 795.464 278.335 794.1 278.419C792.535 278.445 791.004 278.886 789.664 279.695C788.324 280.506 787.222 281.655 786.47 283.029L756.126 338.801L695.436 357.953C693.968 358.423 692.647 359.266 691.605 360.401C690.562 361.536 689.834 362.923 689.492 364.425C689.144 365.753 689.308 367.164 689.947 368.378C690.588 369.592 691.659 370.522 692.952 370.987L746.188 390.051L755.061 445.821C755.277 447.175 755.984 448.403 757.048 449.27C758.112 450.136 759.457 450.581 760.828 450.521C762.403 450.485 763.94 450.031 765.281 449.205C766.622 448.379 767.719 447.211 768.459 445.821L798.803 390.051C842.806 377.437 888.335 370.931 934.112 370.72C936.31 370.533 938.52 370.872 940.561 371.705C942.603 372.539 944.417 373.842 945.855 375.513C947.293 377.184 948.313 379.173 948.832 381.314C949.351 383.456 949.355 385.692 948.841 387.835L929.853 485.369C926.569 499.686 918.633 512.513 907.284 521.849C895.936 531.184 881.814 536.501 867.123 536.972L620.905 536.264Z" fill="white"/>
<path d="M545.424 693.819C537.527 693.819 530.448 692.021 524.186 688.426C517.948 684.853 513.018 679.647 509.397 672.805C505.799 665.987 504 657.757 504 648.114C504 638.401 505.811 630.124 509.432 623.282C513.077 616.441 518.03 611.223 524.291 607.627C530.553 604.031 537.597 602.233 545.424 602.233C550.494 602.233 555.213 602.946 559.582 604.37C563.975 605.794 567.865 607.861 571.253 610.569C574.64 613.277 577.409 616.605 579.558 620.551C581.731 624.473 583.156 628.921 583.834 633.894H565.33C564.933 631.466 564.162 629.306 563.017 627.415C561.872 625.524 560.459 623.913 558.776 622.582C557.071 621.228 555.12 620.2 552.924 619.5C550.728 618.823 548.356 618.484 545.809 618.484C541.16 618.484 537.083 619.64 533.579 621.952C530.051 624.263 527.329 627.625 525.413 632.038C523.497 636.428 522.539 641.786 522.539 648.114C522.539 654.535 523.52 659.94 525.483 664.33C527.446 668.719 530.167 672.023 533.649 674.241C537.106 676.483 541.137 677.604 545.739 677.604C548.286 677.604 550.646 677.253 552.819 676.553C554.991 675.852 556.954 674.837 558.706 673.506C560.435 672.175 561.872 670.552 563.017 668.638C564.162 666.723 564.944 664.563 565.365 662.158H583.869C583.402 666.268 582.175 670.225 580.189 674.031C578.227 677.814 575.61 681.199 572.339 684.188C569.045 687.177 565.143 689.535 560.634 691.263C556.125 692.967 551.055 693.819 545.424 693.819ZM588.775 603.459H606.754V692.628H588.775V603.459ZM637.103 693.469C632.477 693.469 628.424 692.465 624.943 690.457C621.485 688.426 618.81 685.53 616.917 681.771C615.001 677.989 614.043 673.482 614.043 668.252V625.699H632.022V665.17C632.022 669.303 633.097 672.548 635.246 674.907C637.419 677.265 640.374 678.444 644.113 678.444C646.683 678.444 648.937 677.895 650.876 676.798C652.839 675.701 654.369 674.101 655.467 672C656.565 669.922 657.114 667.4 657.114 664.435V625.699H675.093V692.628H658.131L657.885 675.922H658.902C657.15 681.549 654.474 685.881 650.876 688.916C647.255 691.951 642.664 693.469 637.103 693.469ZM675.969 625.699H715.676V639.428H675.969V625.699ZM685.186 674.627V609.798H703.164V673.05C703.164 675.175 703.632 676.74 704.566 677.744C705.501 678.771 707.066 679.285 709.262 679.285C709.94 679.285 710.898 679.191 712.136 679.004C713.374 678.841 714.321 678.678 714.975 678.514L717.533 691.963C715.547 692.57 713.561 692.99 711.575 693.224C709.613 693.457 707.732 693.574 705.933 693.574C699.228 693.574 694.099 691.94 690.548 688.671C686.973 685.402 685.186 680.721 685.186 674.627ZM749.355 693.959C742.603 693.959 736.773 692.512 731.867 689.616C726.984 686.721 723.211 682.682 720.547 677.498C717.907 672.338 716.587 666.326 716.587 659.461C716.587 652.527 717.907 646.479 720.547 641.319C723.211 636.136 726.984 632.097 731.867 629.201C736.773 626.306 742.603 624.858 749.355 624.858C753.303 624.858 756.948 625.384 760.289 626.435C763.653 627.462 766.632 628.933 769.226 630.847C771.819 632.762 773.957 635.097 775.639 637.852C777.321 640.607 778.478 643.701 779.108 647.133L762.392 650.25C762.041 648.499 761.48 646.935 760.709 645.557C759.962 644.18 759.051 643.001 757.976 642.02C756.878 641.039 755.628 640.292 754.226 639.778C752.801 639.265 751.235 639.008 749.53 639.008C746.329 639.008 743.642 639.86 741.469 641.565C739.297 643.292 737.661 645.686 736.563 648.744C735.465 651.826 734.916 655.387 734.916 659.426C734.916 663.396 735.465 666.91 736.563 669.968C737.661 673.027 739.297 675.432 741.469 677.183C743.642 678.934 746.329 679.81 749.53 679.81C751.235 679.81 752.812 679.541 754.261 679.004C755.686 678.467 756.96 677.697 758.081 676.693C759.202 675.666 760.137 674.428 760.885 672.98C761.656 671.556 762.205 669.945 762.532 668.147L779.214 671.194C778.583 674.743 777.426 677.907 775.744 680.686C774.062 683.464 771.924 685.846 769.331 687.83C766.737 689.838 763.758 691.356 760.394 692.383C757.006 693.434 753.327 693.959 749.355 693.959ZM801.573 653.893V692.628H783.594V603.459H801.187V642.405H799.75C801.503 636.825 804.166 632.505 807.741 629.447C811.315 626.388 815.941 624.858 821.619 624.858C826.245 624.858 830.287 625.874 833.745 627.905C837.202 629.913 839.878 632.809 841.77 636.591C843.663 640.35 844.609 644.845 844.609 650.075V692.628H826.665V653.192C826.665 649.036 825.591 645.779 823.441 643.421C821.315 641.063 818.348 639.883 814.54 639.883C812.04 639.883 809.797 640.432 807.811 641.53C805.848 642.627 804.318 644.215 803.22 646.293C802.122 648.371 801.573 650.904 801.573 653.893ZM885.086 693.959C877.937 693.959 871.722 692.862 866.442 690.667C861.162 688.472 857.038 685.215 854.071 680.896C851.127 676.576 849.574 671.264 849.41 664.96H867.178C867.435 667.972 868.335 670.482 869.877 672.49C871.442 674.498 873.521 676.004 876.115 677.008C878.708 678.012 881.64 678.514 884.911 678.514C888.182 678.514 891.033 678.047 893.462 677.113C895.869 676.156 897.75 674.825 899.105 673.121C900.46 671.393 901.137 669.396 901.137 667.132C901.137 665.1 900.53 663.396 899.315 662.018C898.1 660.641 896.36 659.45 894.093 658.446C891.804 657.442 889.023 656.566 885.752 655.819L875.94 653.367C868.393 651.523 862.482 648.639 858.206 644.717C853.931 640.794 851.793 635.599 851.793 629.131C851.793 623.738 853.242 619.021 856.139 614.982C859.036 610.966 863.008 607.837 868.054 605.596C873.101 603.354 878.86 602.233 885.332 602.233C891.92 602.233 897.668 603.366 902.574 605.631C907.504 607.896 911.347 611.024 914.104 615.017C916.838 619.033 918.251 623.656 918.345 628.886H900.682C900.355 625.29 898.824 622.512 896.091 620.551C893.357 618.613 889.713 617.644 885.157 617.644C882.096 617.644 879.468 618.076 877.271 618.94C875.075 619.827 873.393 621.041 872.225 622.582C871.057 624.146 870.472 625.933 870.472 627.941C870.472 630.135 871.15 631.957 872.505 633.404C873.837 634.852 875.589 636.031 877.762 636.941C879.935 637.829 882.283 638.576 884.806 639.183L892.902 641.144C896.64 641.985 900.133 643.129 903.38 644.577C906.605 646.001 909.432 647.764 911.861 649.865C914.315 651.966 916.207 654.453 917.539 657.325C918.871 660.197 919.536 663.501 919.536 667.237C919.536 672.63 918.181 677.335 915.471 681.351C912.761 685.367 908.824 688.472 903.661 690.667C898.521 692.862 892.329 693.959 885.086 693.959ZM917.854 625.699H957.561V639.428H917.854V625.699ZM927.071 674.627V609.798H945.05V673.05C945.05 675.175 945.517 676.74 946.451 677.744C947.386 678.771 948.951 679.285 951.148 679.285C951.825 679.285 952.783 679.191 954.021 679.004C955.26 678.841 956.206 678.678 956.86 678.514L959.418 691.963C957.432 692.57 955.447 692.99 953.461 693.224C951.475 693.457 949.582 693.574 947.783 693.574C941.078 693.574 935.949 691.94 932.398 688.671C928.847 685.402 927.071 680.721 927.071 674.627ZM979.955 693.959C975.726 693.959 971.918 693.212 968.53 691.718C965.166 690.2 962.514 687.959 960.575 684.993C958.636 682.028 957.666 678.327 957.666 673.891C957.666 670.179 958.355 667.062 959.734 664.54C961.112 662.042 962.993 660.034 965.376 658.516C967.759 656.998 970.458 655.842 973.472 655.049C976.486 654.255 979.64 653.694 982.934 653.367C986.812 652.97 989.943 652.597 992.326 652.247C994.709 651.92 996.45 651.383 997.548 650.636C998.646 649.912 999.195 648.826 999.195 647.378V647.063C999.195 645.149 998.786 643.538 997.969 642.23C997.174 640.922 996.006 639.918 994.464 639.218C992.899 638.518 990.983 638.167 988.716 638.167C986.38 638.167 984.359 638.518 982.654 639.218C980.925 639.918 979.523 640.841 978.448 641.985C977.373 643.152 976.579 644.448 976.065 645.872L959.594 643.141C960.762 639.265 962.678 635.973 965.341 633.264C968.028 630.532 971.357 628.454 975.329 627.03C979.301 625.582 983.763 624.858 988.716 624.858C992.338 624.858 995.842 625.29 999.23 626.154C1002.64 627.018 1005.69 628.349 1008.38 630.147C1011.06 631.945 1013.2 634.28 1014.79 637.152C1016.36 640.024 1017.14 643.491 1017.14 647.554V692.628H1000.14V683.347H999.546C998.471 685.425 997.034 687.247 995.235 688.811C993.436 690.399 991.263 691.648 988.716 692.558C986.193 693.492 983.273 693.959 979.955 693.959ZM985.037 681.316C987.887 681.316 990.375 680.756 992.501 679.635C994.628 678.514 996.298 676.996 997.513 675.082C998.704 673.167 999.3 671.031 999.3 668.673V661.458C998.786 661.855 997.992 662.205 996.917 662.508C995.842 662.835 994.639 663.116 993.307 663.349C991.999 663.606 990.702 663.828 989.417 664.014C988.132 664.225 986.999 664.388 986.018 664.505C983.822 664.808 981.883 665.322 980.2 666.046C978.518 666.77 977.222 667.715 976.31 668.883C975.376 670.073 974.909 671.58 974.909 673.401C974.909 675.129 975.352 676.576 976.24 677.744C977.128 678.934 978.32 679.822 979.815 680.405C981.31 681.012 983.051 681.316 985.037 681.316ZM1018.05 625.699H1057.76V639.428H1018.05V625.699ZM1027.27 674.627V609.798H1045.25V673.05C1045.25 675.175 1045.71 676.74 1046.65 677.744C1047.58 678.771 1049.15 679.285 1051.34 679.285C1052.02 679.285 1052.98 679.191 1054.22 679.004C1055.46 678.841 1056.39 678.678 1057.02 678.514L1059.61 691.963C1057.6 692.57 1055.62 692.99 1053.66 693.224C1051.67 693.457 1049.78 693.574 1047.98 693.574C1041.27 693.574 1036.14 691.94 1032.59 688.671C1029.04 685.402 1027.27 680.721 1027.27 674.627ZM1088.04 693.959C1082.66 693.959 1077.9 693.189 1073.74 691.648C1069.58 690.107 1066.18 687.865 1063.54 684.923C1060.92 682.005 1059.23 678.467 1058.46 674.311L1075.17 671.439C1076.04 674.545 1077.57 676.88 1079.77 678.444C1081.96 680.008 1084.91 680.791 1088.6 680.791C1091.98 680.791 1094.67 680.137 1096.66 678.829C1098.67 677.545 1099.67 675.899 1099.67 673.891C1099.67 672.14 1098.96 670.704 1097.53 669.583C1096.13 668.462 1093.97 667.61 1091.05 667.026L1079.48 664.61C1073.01 663.302 1068.18 661.061 1064.98 657.885C1061.8 654.71 1060.21 650.624 1060.21 645.627C1060.21 641.331 1061.38 637.63 1063.71 634.525C1066.07 631.443 1069.36 629.061 1073.56 627.38C1077.74 625.699 1082.67 624.858 1088.35 624.858C1093.61 624.858 1098.18 625.594 1102.05 627.065C1105.93 628.513 1109.07 630.579 1111.48 633.264C1113.86 635.926 1115.45 639.078 1116.25 642.72L1100.34 645.522C1099.66 643.257 1098.35 641.389 1096.41 639.918C1094.47 638.471 1091.87 637.747 1088.6 637.747C1085.63 637.747 1083.15 638.366 1081.17 639.603C1079.16 640.841 1078.15 642.475 1078.15 644.507C1078.15 646.211 1078.81 647.647 1080.12 648.814C1081.4 649.982 1083.62 650.881 1086.77 651.511L1098.83 653.893C1105.3 655.224 1110.11 657.372 1113.27 660.337C1116.42 663.302 1118 667.178 1118 671.965C1118 676.354 1116.71 680.195 1114.14 683.487C1111.6 686.78 1108.08 689.348 1103.6 691.193C1099.11 693.037 1093.92 693.959 1088.04 693.959Z" fill="#111111"/>
<path d="M523.922 750.596C523.713 748.491 522.783 746.816 521.134 745.573C519.484 744.33 517.41 743.708 514.911 743.708C513.15 743.708 511.599 744.01 510.257 744.613C508.928 745.216 507.881 746.053 507.118 747.124C506.367 748.183 505.992 749.389 505.992 750.743C505.992 751.741 506.207 752.615 506.638 753.366C507.069 754.117 507.647 754.763 508.374 755.305C509.112 755.834 509.925 756.289 510.811 756.671C511.71 757.053 512.615 757.373 513.526 757.631L517.514 758.776C518.721 759.108 519.927 759.533 521.134 760.05C522.34 760.567 523.442 761.22 524.439 762.008C525.449 762.783 526.255 763.737 526.858 764.87C527.474 765.99 527.781 767.338 527.781 768.914C527.781 770.933 527.258 772.749 526.212 774.361C525.165 775.974 523.664 777.254 521.706 778.202C519.749 779.138 517.404 779.606 514.671 779.606C512.098 779.606 509.863 779.181 507.968 778.332C506.072 777.47 504.582 776.282 503.499 774.768C502.415 773.253 501.806 771.499 501.671 769.505H505.216C505.339 770.994 505.832 772.256 506.693 773.29C507.555 774.324 508.675 775.112 510.054 775.654C511.433 776.183 512.972 776.448 514.671 776.448C516.554 776.448 518.228 776.134 519.693 775.506C521.171 774.866 522.328 773.98 523.165 772.847C524.014 771.702 524.439 770.373 524.439 768.858C524.439 767.578 524.107 766.507 523.442 765.645C522.777 764.771 521.848 764.039 520.654 763.448C519.472 762.857 518.099 762.334 516.536 761.878L512.012 760.549C509.045 759.662 506.743 758.438 505.105 756.874C503.468 755.311 502.649 753.316 502.649 750.891C502.649 748.86 503.191 747.075 504.274 745.536C505.37 743.985 506.847 742.778 508.706 741.917C510.577 741.043 512.676 740.606 515.003 740.606C517.354 740.606 519.435 741.037 521.244 741.898C523.054 742.76 524.488 743.948 525.547 745.462C526.618 746.964 527.191 748.675 527.264 750.596H523.922ZM546.875 779.55C544.228 779.55 541.939 778.935 540.006 777.704C538.073 776.46 536.577 774.743 535.519 772.552C534.472 770.348 533.949 767.812 533.949 764.944C533.949 762.088 534.472 759.552 535.519 757.336C536.577 755.108 538.036 753.366 539.895 752.11C541.766 750.842 543.927 750.208 546.377 750.208C547.915 750.208 549.399 750.491 550.827 751.057C552.255 751.611 553.535 752.467 554.668 753.624C555.813 754.769 556.718 756.216 557.382 757.964C558.047 759.699 558.379 761.755 558.379 764.131V765.756H536.22V762.857H555.019C555.019 761.035 554.649 759.398 553.911 757.945C553.184 756.48 552.169 755.323 550.864 754.474C549.571 753.624 548.075 753.199 546.377 753.199C544.579 753.199 542.997 753.68 541.631 754.64C540.264 755.6 539.193 756.868 538.418 758.444C537.655 760.019 537.267 761.743 537.254 763.614V765.35C537.254 767.603 537.642 769.573 538.418 771.259C539.206 772.933 540.32 774.232 541.76 775.155C543.2 776.079 544.905 776.54 546.875 776.54C548.217 776.54 549.393 776.331 550.402 775.912C551.424 775.494 552.28 774.934 552.969 774.232C553.671 773.518 554.2 772.736 554.557 771.887L557.678 772.903C557.247 774.097 556.539 775.198 555.554 776.208C554.582 777.217 553.363 778.03 551.898 778.645C550.445 779.249 548.771 779.55 546.875 779.55ZM577.09 779.55C574.443 779.55 572.153 778.935 570.221 777.704C568.288 776.46 566.792 774.743 565.733 772.552C564.687 770.348 564.164 767.812 564.164 764.944C564.164 762.088 564.687 759.552 565.733 757.336C566.792 755.108 568.251 753.366 570.11 752.11C571.981 750.842 574.142 750.208 576.591 750.208C578.13 750.208 579.614 750.491 581.042 751.057C582.47 751.611 583.75 752.467 584.883 753.624C586.028 754.769 586.932 756.216 587.597 757.964C588.262 759.699 588.594 761.755 588.594 764.131V765.756H566.435V762.857H585.233C585.233 761.035 584.864 759.398 584.126 757.945C583.399 756.48 582.384 755.323 581.079 754.474C579.786 753.624 578.29 753.199 576.591 753.199C574.794 753.199 573.212 753.68 571.846 754.64C570.479 755.6 569.408 756.868 568.633 758.444C567.869 760.019 567.482 761.743 567.469 763.614V765.35C567.469 767.603 567.857 769.573 568.633 771.259C569.421 772.933 570.535 774.232 571.975 775.155C573.415 776.079 575.12 776.54 577.09 776.54C578.432 776.54 579.608 776.331 580.617 775.912C581.639 775.494 582.494 774.934 583.184 774.232C583.885 773.518 584.415 772.736 584.772 771.887L587.893 772.903C587.462 774.097 586.754 775.198 585.769 776.208C584.796 777.217 583.578 778.03 582.113 778.645C580.66 779.249 578.986 779.55 577.09 779.55ZM608.856 744.243V741.141H636.278V744.243H624.294V778.959H620.84V744.243H608.856ZM646.656 761.232V778.959H643.369V741.141H646.656V755.046H646.951C647.616 753.581 648.644 752.412 650.035 751.537C651.438 750.663 653.211 750.226 655.353 750.226C657.274 750.226 658.96 750.62 660.413 751.408C661.865 752.196 662.998 753.359 663.811 754.898C664.623 756.437 665.029 758.333 665.029 760.586V778.959H661.724V760.789C661.724 758.45 661.071 756.609 659.767 755.268C658.474 753.913 656.726 753.236 654.522 753.236C653.008 753.236 651.66 753.556 650.478 754.197C649.296 754.837 648.361 755.76 647.671 756.966C646.994 758.161 646.656 759.582 646.656 761.232ZM685.153 779.55C682.506 779.55 680.216 778.935 678.283 777.704C676.35 776.46 674.855 774.743 673.796 772.552C672.75 770.348 672.226 767.812 672.226 764.944C672.226 762.088 672.75 759.552 673.796 757.336C674.855 755.108 676.314 753.366 678.172 752.11C680.044 750.842 682.204 750.208 684.654 750.208C686.193 750.208 687.676 750.491 689.104 751.057C690.532 751.611 691.813 752.467 692.945 753.624C694.09 754.769 694.995 756.216 695.66 757.964C696.324 759.699 696.657 761.755 696.657 764.131V765.756H674.498V762.857H693.296C693.296 761.035 692.927 759.398 692.188 757.945C691.462 756.48 690.446 755.323 689.141 754.474C687.849 753.624 686.353 753.199 684.654 753.199C682.857 753.199 681.275 753.68 679.908 754.64C678.542 755.6 677.471 756.868 676.695 758.444C675.932 760.019 675.544 761.743 675.532 763.614V765.35C675.532 767.603 675.92 769.573 676.695 771.259C677.483 772.933 678.597 774.232 680.037 775.155C681.478 776.079 683.183 776.54 685.153 776.54C686.494 776.54 687.67 776.331 688.68 775.912C689.701 775.494 690.557 774.934 691.246 774.232C691.948 773.518 692.477 772.736 692.834 771.887L695.955 772.903C695.524 774.097 694.816 775.198 693.831 776.208C692.859 777.217 691.64 778.03 690.175 778.645C688.723 779.249 687.048 779.55 685.153 779.55ZM745.374 752.959C745.03 751.704 744.525 750.528 743.86 749.432C743.195 748.324 742.371 747.358 741.386 746.533C740.413 745.696 739.287 745.044 738.007 744.576C736.739 744.108 735.323 743.874 733.759 743.874C731.297 743.874 729.094 744.514 727.149 745.795C725.204 747.075 723.665 748.921 722.532 751.334C721.412 753.747 720.852 756.653 720.852 760.05C720.852 763.436 721.418 766.335 722.551 768.748C723.683 771.161 725.234 773.013 727.204 774.306C729.186 775.586 731.451 776.226 733.999 776.226C736.326 776.226 738.382 775.709 740.167 774.675C741.952 773.641 743.343 772.164 744.34 770.243C745.35 768.323 745.842 766.039 745.818 763.393L746.926 763.743H734.812V760.641H749.178V763.743C749.178 766.969 748.526 769.757 747.221 772.108C745.916 774.46 744.125 776.276 741.847 777.556C739.57 778.836 736.954 779.476 733.999 779.476C730.7 779.476 727.813 778.682 725.339 777.094C722.865 775.494 720.938 773.241 719.559 770.336C718.193 767.418 717.509 763.99 717.509 760.05C717.509 757.083 717.903 754.406 718.691 752.018C719.479 749.629 720.593 747.586 722.034 745.887C723.486 744.188 725.204 742.889 727.186 741.991C729.168 741.08 731.359 740.624 733.759 740.624C735.828 740.624 737.717 740.95 739.428 741.603C741.152 742.255 742.666 743.154 743.971 744.299C745.288 745.431 746.365 746.742 747.203 748.232C748.052 749.709 748.624 751.285 748.92 752.959H745.374ZM764.99 779.606C763.279 779.606 761.715 779.273 760.3 778.608C758.884 777.931 757.757 776.959 756.92 775.691C756.083 774.411 755.665 772.859 755.665 771.037C755.665 769.634 755.929 768.452 756.459 767.492C756.988 766.532 757.739 765.744 758.711 765.128C759.684 764.513 760.835 764.027 762.165 763.67C763.494 763.313 764.959 763.036 766.559 762.839C768.148 762.642 769.489 762.469 770.585 762.322C771.693 762.174 772.536 761.94 773.115 761.62C773.693 761.3 773.983 760.783 773.983 760.069V759.404C773.983 757.471 773.404 755.951 772.247 754.843C771.102 753.723 769.452 753.162 767.298 753.162C765.255 753.162 763.586 753.612 762.294 754.51C761.014 755.409 760.115 756.468 759.598 757.687L756.477 756.56C757.117 755.009 758.004 753.772 759.136 752.849C760.269 751.913 761.537 751.242 762.94 750.836C764.344 750.417 765.765 750.208 767.206 750.208C768.289 750.208 769.416 750.35 770.585 750.633C771.767 750.916 772.863 751.408 773.872 752.11C774.881 752.799 775.7 753.766 776.328 755.009C776.956 756.24 777.27 757.804 777.27 759.699V778.959H773.983V774.472H773.78C773.386 775.309 772.801 776.122 772.025 776.91C771.25 777.698 770.277 778.344 769.108 778.849C767.938 779.353 766.566 779.606 764.99 779.606ZM765.433 776.596C767.181 776.596 768.695 776.208 769.976 775.432C771.256 774.657 772.241 773.629 772.93 772.349C773.632 771.056 773.983 769.634 773.983 768.083V763.983C773.737 764.217 773.324 764.427 772.746 764.611C772.179 764.796 771.521 764.962 770.77 765.11C770.031 765.245 769.292 765.362 768.554 765.461C767.815 765.559 767.15 765.645 766.559 765.719C764.959 765.916 763.593 766.224 762.46 766.643C761.327 767.061 760.46 767.64 759.856 768.378C759.253 769.105 758.952 770.04 758.952 771.185C758.952 772.909 759.567 774.244 760.798 775.192C762.029 776.128 763.574 776.596 765.433 776.596ZM786.013 778.959V750.596H789.208V754.954H789.503C790.07 753.489 791.011 752.338 792.329 751.501C793.658 750.651 795.252 750.226 797.111 750.226C799.069 750.226 800.675 750.688 801.931 751.611C803.199 752.522 804.147 753.778 804.775 755.378H805.015C805.655 753.803 806.695 752.553 808.135 751.63C809.588 750.694 811.349 750.226 813.417 750.226C816.051 750.226 818.132 751.057 819.658 752.719C821.185 754.369 821.948 756.782 821.948 759.958V778.959H818.661V759.958C818.661 757.717 818.089 756.037 816.944 754.917C815.799 753.796 814.291 753.236 812.42 753.236C810.253 753.236 808.585 753.901 807.415 755.231C806.246 756.56 805.661 758.247 805.661 760.29V778.959H802.3V759.662C802.3 757.742 801.765 756.191 800.694 755.009C799.623 753.827 798.115 753.236 796.17 753.236C794.865 753.236 793.689 753.556 792.643 754.197C791.608 754.837 790.79 755.729 790.187 756.874C789.596 758.007 789.3 759.312 789.3 760.789V778.959H786.013ZM842.117 779.55C839.471 779.55 837.181 778.935 835.248 777.704C833.315 776.46 831.82 774.743 830.761 772.552C829.714 770.348 829.191 767.812 829.191 764.944C829.191 762.088 829.714 759.552 830.761 757.336C831.82 755.108 833.278 753.366 835.137 752.11C837.008 750.842 839.169 750.208 841.619 750.208C843.158 750.208 844.641 750.491 846.069 751.057C847.497 751.611 848.777 752.467 849.91 753.624C851.055 754.769 851.96 756.216 852.624 757.964C853.289 759.699 853.622 761.755 853.622 764.131V765.756H831.463V762.857H850.261C850.261 761.035 849.892 759.398 849.153 757.945C848.427 756.48 847.411 755.323 846.106 754.474C844.813 753.624 843.318 753.199 841.619 753.199C839.821 753.199 838.24 753.68 836.873 754.64C835.507 755.6 834.436 756.868 833.66 758.444C832.897 760.019 832.509 761.743 832.497 763.614V765.35C832.497 767.603 832.884 769.573 833.66 771.259C834.448 772.933 835.562 774.232 837.002 775.155C838.443 776.079 840.148 776.54 842.117 776.54C843.459 776.54 844.635 776.331 845.644 775.912C846.666 775.494 847.522 774.934 848.211 774.232C848.913 773.518 849.442 772.736 849.799 771.887L852.92 772.903C852.489 774.097 851.781 775.198 850.796 776.208C849.824 777.217 848.605 778.03 847.14 778.645C845.687 779.249 844.013 779.55 842.117 779.55ZM887.253 778.959H876.173V741.141H887.917C891.524 741.141 894.608 741.892 897.169 743.394C899.742 744.896 901.711 747.05 903.078 749.857C904.444 752.664 905.128 756.031 905.128 759.958C905.128 763.922 904.426 767.326 903.023 770.17C901.631 773.001 899.6 775.174 896.929 776.688C894.27 778.202 891.044 778.959 887.253 778.959ZM879.626 775.857H887.05C890.3 775.857 893.02 775.217 895.211 773.937C897.403 772.656 899.046 770.828 900.142 768.452C901.238 766.076 901.785 763.245 901.785 759.958C901.773 756.696 901.231 753.889 900.16 751.537C899.102 749.186 897.526 747.383 895.433 746.127C893.353 744.871 890.78 744.243 887.714 744.243H879.626V775.857ZM912.851 778.959V750.596H916.156V778.959H912.851ZM914.531 745.721C913.854 745.721 913.276 745.493 912.796 745.037C912.316 744.57 912.075 744.01 912.075 743.357C912.075 742.705 912.316 742.151 912.796 741.695C913.276 741.227 913.854 740.993 914.531 740.993C915.209 740.993 915.787 741.227 916.267 741.695C916.747 742.151 916.987 742.705 916.987 743.357C916.987 744.01 916.747 744.57 916.267 745.037C915.787 745.493 915.209 745.721 914.531 745.721ZM936.52 750.596V753.458H922.578V750.596H936.52ZM926.936 778.959V746.441C926.936 744.914 927.287 743.628 927.988 742.582C928.702 741.535 929.632 740.741 930.777 740.199C931.922 739.658 933.134 739.387 934.415 739.387C935.276 739.387 935.99 739.461 936.557 739.608C937.135 739.744 937.591 739.879 937.923 740.015L936.963 742.895C936.717 742.822 936.415 742.735 936.058 742.637C935.701 742.538 935.252 742.489 934.71 742.489C933.282 742.489 932.18 742.889 931.405 743.689C930.629 744.49 930.241 745.635 930.241 747.124L930.223 778.959H926.936ZM954.75 750.596V753.458H940.808V750.596H954.75ZM945.166 778.959V746.441C945.166 744.914 945.517 743.628 946.219 742.582C946.933 741.535 947.862 740.741 949.007 740.199C950.152 739.658 951.365 739.387 952.645 739.387C953.507 739.387 954.221 739.461 954.787 739.608C955.366 739.744 955.821 739.879 956.154 740.015L955.193 742.895C954.947 742.822 954.646 742.735 954.289 742.637C953.932 742.538 953.482 742.489 952.941 742.489C951.512 742.489 950.411 742.889 949.635 743.689C948.86 744.49 948.472 745.635 948.472 747.124L948.453 778.959H945.166ZM971.61 779.55C968.963 779.55 966.673 778.935 964.74 777.704C962.807 776.46 961.312 774.743 960.253 772.552C959.207 770.348 958.683 767.812 958.683 764.944C958.683 762.088 959.207 759.552 960.253 757.336C961.312 755.108 962.771 753.366 964.629 752.11C966.501 750.842 968.661 750.208 971.111 750.208C972.65 750.208 974.133 750.491 975.561 751.057C976.989 751.611 978.27 752.467 979.402 753.624C980.547 754.769 981.452 756.216 982.117 757.964C982.781 759.699 983.114 761.755 983.114 764.131V765.756H960.955V762.857H979.753C979.753 761.035 979.384 759.398 978.645 757.945C977.919 756.48 976.903 755.323 975.598 754.474C974.306 753.624 972.81 753.199 971.111 753.199C969.314 753.199 967.732 753.68 966.365 754.64C964.999 755.6 963.928 756.868 963.152 758.444C962.389 760.019 962.001 761.743 961.989 763.614V765.35C961.989 767.603 962.377 769.573 963.152 771.259C963.94 772.933 965.054 774.232 966.494 775.155C967.935 776.079 969.64 776.54 971.61 776.54C972.951 776.54 974.127 776.331 975.137 775.912C976.158 775.494 977.014 774.934 977.703 774.232C978.405 773.518 978.934 772.736 979.291 771.887L982.412 772.903C981.981 774.097 981.273 775.198 980.289 776.208C979.316 777.217 978.097 778.03 976.632 778.645C975.18 779.249 973.505 779.55 971.61 779.55ZM990.357 778.959V750.596H993.552V754.954H993.792C994.358 753.526 995.343 752.375 996.746 751.501C998.162 750.614 999.762 750.171 1001.55 750.171C1001.82 750.171 1002.12 750.177 1002.45 750.189C1002.78 750.202 1003.06 750.214 1003.28 750.226V753.569C1003.14 753.544 1002.88 753.507 1002.51 753.458C1002.14 753.409 1001.74 753.384 1001.31 753.384C999.83 753.384 998.513 753.698 997.356 754.326C996.211 754.941 995.306 755.797 994.641 756.893C993.976 757.988 993.644 759.238 993.644 760.641V778.959H990.357ZM1019.5 779.55C1016.85 779.55 1014.56 778.935 1012.63 777.704C1010.69 776.46 1009.2 774.743 1008.14 772.552C1007.09 770.348 1006.57 767.812 1006.57 764.944C1006.57 762.088 1007.09 759.552 1008.14 757.336C1009.2 755.108 1010.66 753.366 1012.52 752.11C1014.39 750.842 1016.55 750.208 1019 750.208C1020.54 750.208 1022.02 750.491 1023.45 751.057C1024.88 751.611 1026.16 752.467 1027.29 753.624C1028.43 754.769 1029.34 756.216 1030 757.964C1030.67 759.699 1031 761.755 1031 764.131V765.756H1008.84V762.857H1027.64C1027.64 761.035 1027.27 759.398 1026.53 757.945C1025.81 756.48 1024.79 755.323 1023.48 754.474C1022.19 753.624 1020.7 753.199 1019 753.199C1017.2 753.199 1015.62 753.68 1014.25 754.64C1012.89 755.6 1011.81 756.868 1011.04 758.444C1010.28 760.019 1009.89 761.743 1009.88 763.614V765.35C1009.88 767.603 1010.26 769.573 1011.04 771.259C1011.83 772.933 1012.94 774.232 1014.38 775.155C1015.82 776.079 1017.53 776.54 1019.5 776.54C1020.84 776.54 1022.01 776.331 1023.02 775.912C1024.05 775.494 1024.9 774.934 1025.59 774.232C1026.29 773.518 1026.82 772.736 1027.18 771.887L1030.3 772.903C1029.87 774.097 1029.16 775.198 1028.18 776.208C1027.2 777.217 1025.98 778.03 1024.52 778.645C1023.07 779.249 1021.39 779.55 1019.5 779.55ZM1041.53 761.232V778.959H1038.24V750.596H1041.44V755.046H1041.73C1042.4 753.593 1043.43 752.43 1044.84 751.556C1046.25 750.67 1048 750.226 1050.08 750.226C1051.99 750.226 1053.66 750.626 1055.1 751.427C1056.56 752.215 1057.68 753.378 1058.48 754.917C1059.29 756.456 1059.7 758.345 1059.7 760.586V778.959H1056.41V760.789C1056.41 758.462 1055.76 756.622 1054.46 755.268C1053.16 753.913 1051.43 753.236 1049.25 753.236C1047.76 753.236 1046.44 753.556 1045.28 754.197C1044.12 754.837 1043.2 755.76 1042.53 756.966C1041.86 758.161 1041.53 759.582 1041.53 761.232ZM1079.53 750.596V753.458H1065.99V750.596H1079.53ZM1070.22 743.8H1073.53V771.555C1073.53 772.736 1073.73 773.666 1074.14 774.343C1074.54 775.008 1075.07 775.482 1075.72 775.765C1076.38 776.036 1077.07 776.171 1077.81 776.171C1078.24 776.171 1078.61 776.146 1078.92 776.097C1079.23 776.036 1079.5 775.974 1079.73 775.912L1080.43 778.885C1080.11 779.009 1079.72 779.119 1079.25 779.218C1078.78 779.329 1078.21 779.384 1077.52 779.384C1076.31 779.384 1075.15 779.119 1074.03 778.59C1072.92 778.061 1072.01 777.273 1071.29 776.226C1070.58 775.18 1070.22 773.881 1070.22 772.33V743.8ZM1090.89 741.141V778.959H1087.6V741.141H1090.89ZM1101.88 789.596C1101.22 789.596 1100.62 789.534 1100.05 789.411C1099.48 789.288 1099.03 789.153 1098.7 789.005L1099.59 786.106C1100.71 786.45 1101.7 786.573 1102.58 786.475C1103.45 786.389 1104.23 785.995 1104.91 785.293C1105.58 784.604 1106.19 783.545 1106.72 782.117L1107.75 779.236L1097.32 750.596H1100.88L1109.3 774.62H1109.56L1117.98 750.596H1121.54L1109.54 783.447C1109.04 784.813 1108.41 785.952 1107.68 786.863C1106.94 787.786 1106.08 788.469 1105.11 788.912C1104.15 789.368 1103.07 789.596 1101.88 789.596Z" fill="#272828"/>
<defs>
<linearGradient id="paint0_linear_57_76" x1="800" y1="-35" x2="800" y2="3013" gradientUnits="userSpaceOnUse">
<stop offset="0.0139943" stop-color="#EEFEFF"/>
<stop offset="0.25" stop-color="#D1F2F4"/>
<stop offset="0.586538" stop-color="#91ECF3"/>
<stop offset="1" stop-color="#207D83"/>
</linearGradient>
</defs>
</svg>
